<svg width="2082" height="1596" xmlns="http://www.w3.org/2000/svg" xmlns:xlink="http://www.w3.org/1999/xlink" xml:space="preserve" overflow="hidden"><defs><clipPath id="clip0"><rect x="1962" y="212" width="2082" height="1596"/></clipPath><clipPath id="clip1"><rect x="1962" y="213" width="2080" height="1593"/></clipPath><clipPath id="clip2"><rect x="2310" y="383" width="1685" height="1376"/></clipPath><clipPath id="clip3"><rect x="2310" y="383" width="1685" height="1376"/></clipPath><clipPath id="clip4"><rect x="1962" y="213" width="2080" height="1593"/></clipPath><clipPath id="clip5"><rect x="1962" y="213" width="2080" height="1593"/></clipPath><clipPath id="clip6"><rect x="1962" y="213" width="2080" height="1593"/></clipPath><clipPath id="clip7"><rect x="1962" y="213" width="2080" height="1593"/></clipPath><clipPath id="clip8"><rect x="1962" y="213" width="2080" height="1593"/></clipPath><clipPath id="clip9"><rect x="1962" y="213" width="2080" height="1593"/></clipPath><clipPath id="clip10"><rect x="1962" y="213" width="2080" height="1593"/></clipPath><clipPath id="clip11"><rect x="1962" y="213" width="2080" height="1593"/></clipPath><clipPath id="clip12"><rect x="1962" y="213" width="2080" height="1593"/></clipPath><clipPath id="clip13"><rect x="1962" y="213" width="2080" height="1593"/></clipPath><clipPath id="clip14"><rect x="1962" y="213" width="2080" height="1593"/></clipPath><clipPath id="clip15"><rect x="1962" y="213" width="2080" height="1593"/></clipPath><clipPath id="clip16"><rect x="1962" y="213" width="2080" height="1593"/></clipPath><clipPath id="clip17"><rect x="1962" y="213" width="2080" height="1593"/></clipPath><clipPath id="clip18"><rect x="1962" y="213" width="2080" height="1593"/></clipPath><clipPath id="clip19"><rect x="1962" y="213" width="2080" height="1593"/></clipPath><clipPath id="clip20"><rect x="1962" y="213" width="2080" height="1593"/></clipPath><clipPath id="clip21"><rect x="1962" y="213" width="2080" height="1593"/></clipPath><clipPath id="clip22"><rect x="1962" y="213" width="2080" height="1593"/></clipPath><clipPath id="clip23"><rect x="1962" y="213" width="2080" height="1593"/></clipPath><clipPath id="clip24"><rect x="1962" y="213" width="2080" height="1593"/></clipPath><clipPath id="clip25"><rect x="1962" y="213" width="2080" height="1593"/></clipPath><clipPath id="clip26"><rect x="1962" y="213" width="2080" height="1593"/></clipPath><clipPath id="clip27"><rect x="1962" y="213" width="2080" height="1593"/></clipPath><clipPath id="clip28"><rect x="1962" y="213" width="2080" height="1593"/></clipPath><clipPath id="clip29"><rect x="1962" y="213" width="2080" height="1593"/></clipPath><clipPath id="clip30"><rect x="1962" y="213" width="2080" height="1593"/></clipPath><clipPath id="clip31"><rect x="1962" y="213" width="2080" height="1593"/></clipPath><clipPath id="clip32"><rect x="1962" y="213" width="2080" height="1593"/></clipPath><clipPath id="clip33"><rect x="1962" y="213" width="2080" height="1593"/></clipPath><clipPath id="clip34"><rect x="1962" y="213" width="2080" height="1593"/></clipPath><clipPath id="clip35"><rect x="1962" y="213" width="2080" height="1593"/></clipPath><clipPath id="clip36"><rect x="1962" y="213" width="2080" height="1593"/></clipPath><clipPath id="clip37"><rect x="1962" y="213" width="2080" height="1593"/></clipPath><clipPath id="clip38"><rect x="1962" y="213" width="2080" height="1593"/></clipPath><clipPath id="clip39"><rect x="1962" y="213" width="2080" height="1593"/></clipPath><clipPath id="clip40"><rect x="1962" y="213" width="2080" height="1593"/></clipPath></defs><g clip-path="url(#clip0)" transform="translate(-1962 -212)"><rect x="1963" y="213" width="2079" height="1593" fill="#FFFFFF"/><g clip-path="url(#clip1)"><path d="M2310.5 1755.5 3992.5 1755.5M2310.5 1618.55 3992.5 1618.55M2310.5 1344.54 3992.5 1344.54M2310.5 1206.54 3992.5 1206.54M2310.5 1069.54 3992.5 1069.54M2310.5 932.531 3992.5 932.531M2310.5 794.526 3992.5 794.526M2310.5 657.522 3992.5 657.522M2310.5 520.517 3992.5 520.517M2310.5 383.5 3992.5 383.5" stroke="#D9D9D9" stroke-width="3.4375" stroke-linejoin="round" stroke-miterlimit="10" fill="none"/></g><g clip-path="url(#clip2)"><rect x="3834" y="503" width="76.0002" height="978" fill="#FFC000"/></g><g clip-path="url(#clip3)"><path d="M2393.08 1660.05 2468.08 1660.05 2468.08 1481.05 2393.08 1481.05ZM2633.09 1619.05 2708.09 1619.05 2708.09 1481.05 2633.09 1481.05ZM2873.09 1365.04 2949.1 1365.04 2949.1 1481.05 2873.09 1481.05ZM3113.1 1312.04 3189.1 1312.04 3189.1 1481.05 3113.1 1481.05ZM3354.11 1312.04 3429.11 1312.04 3429.11 1481.05 3354.11 1481.05ZM3594.12 1237.04 3669.12 1237.04 3669.12 1481.05 3594.12 1481.05Z" fill="#5B9BD5"/></g><g clip-path="url(#clip4)"><path d="M2310.5 1481.5 3992.5 1481.5" stroke="#D9D9D9" stroke-width="3.4375" stroke-linejoin="round" stroke-miterlimit="10" fill="none" fill-rule="evenodd"/></g><g clip-path="url(#clip5)"><text fill="#404040" font-family="Calibri,Calibri_MSFontService,sans-serif" font-weight="400" font-size="41" transform="matrix(1 0 0 1 2398.64 1720)">0.05 </text></g><g clip-path="url(#clip6)"><text fill="#404040" font-family="Calibri,Calibri_MSFontService,sans-serif" font-weight="400" font-size="41" transform="matrix(1 0 0 1 2638.88 1678)">0.10 </text></g><g clip-path="url(#clip7)"><text fill="#404040" font-family="Calibri,Calibri_MSFontService,sans-serif" font-weight="400" font-size="41" transform="matrix(1 0 0 1 2879.12 1333)">7.00 </text></g><g clip-path="url(#clip8)"><text fill="#404040" font-family="Calibri,Calibri_MSFontService,sans-serif" font-weight="400" font-size="41" transform="matrix(1 0 0 1 3108.91 1281)">17.00 </text></g><g clip-path="url(#clip9)"><text fill="#404040" font-family="Calibri,Calibri_MSFontService,sans-serif" font-weight="400" font-size="41" transform="matrix(1 0 0 1 3349.15 1281)">17.00 </text></g><g clip-path="url(#clip10)"><text fill="#404040" font-family="Calibri,Calibri_MSFontService,sans-serif" font-weight="400" font-size="41" transform="matrix(1 0 0 1 3589.39 1205)">60.00 </text></g><g clip-path="url(#clip11)"><text fill="#404040" font-family="Calibri,Calibri_MSFontService,sans-serif" font-weight="400" font-size="41" transform="matrix(1 0 0 1 3782.74 471)">13,500,000 </text></g><g clip-path="url(#clip12)"><text fill="#595959" font-family="Calibri,Calibri_MSFontService,sans-serif" font-weight="400" font-size="41" transform="matrix(1 0 0 1 2180.38 1768)"> 0.01</text></g><g clip-path="url(#clip13)"><text fill="#595959" font-family="Calibri,Calibri_MSFontService,sans-serif" font-weight="400" font-size="41" transform="matrix(1 0 0 1 2180.38 1630)"> 0.10</text></g><g clip-path="url(#clip14)"><text fill="#595959" font-family="Calibri,Calibri_MSFontService,sans-serif" font-weight="400" font-size="41" transform="matrix(1 0 0 1 2180.38 1493)"> 1.00</text></g><g clip-path="url(#clip15)"><text fill="#595959" font-family="Calibri,Calibri_MSFontService,sans-serif" font-weight="400" font-size="41" transform="matrix(1 0 0 1 2159.48 1356)"> 10.00</text></g><g clip-path="url(#clip16)"><text fill="#595959" font-family="Calibri,Calibri_MSFontService,sans-serif" font-weight="400" font-size="41" transform="matrix(1 0 0 1 2138.58 1218)"> 100.00</text></g><g clip-path="url(#clip17)"><text fill="#595959" font-family="Calibri,Calibri_MSFontService,sans-serif" font-weight="400" font-size="41" transform="matrix(1 0 0 1 2107.39 1081)"> 1,000.00</text></g><g clip-path="url(#clip18)"><text fill="#595959" font-family="Calibri,Calibri_MSFontService,sans-serif" font-weight="400" font-size="41" transform="matrix(1 0 0 1 2086.49 944)"> 10,000.00</text></g><g clip-path="url(#clip19)"><text fill="#595959" font-family="Calibri,Calibri_MSFontService,sans-serif" font-weight="400" font-size="41" transform="matrix(1 0 0 1 2065.59 807)"> 100,000.00</text></g><g clip-path="url(#clip20)"><text fill="#595959" font-family="Calibri,Calibri_MSFontService,sans-serif" font-weight="400" font-size="41" transform="matrix(1 0 0 1 2034.4 669)"> 1,000,000.00</text></g><g clip-path="url(#clip21)"><text fill="#595959" font-family="Calibri,Calibri_MSFontService,sans-serif" font-weight="400" font-size="41" transform="matrix(1 0 0 1 2013.5 532)"> 10,000,000.00</text></g><g clip-path="url(#clip22)"><text fill="#595959" font-family="Calibri,Calibri_MSFontService,sans-serif" font-weight="400" font-size="41" transform="matrix(1 0 0 1 1992.6 395)"> 100,000,000.00</text></g><g clip-path="url(#clip23)"><text fill="#FF0000" font-family="Calibri,Calibri_MSFontService,sans-serif" font-weight="700" font-size="41" transform="matrix(1 0 0 1 2313.63 1533)">Python Single</text></g><g clip-path="url(#clip24)"><text fill="#FF0000" font-family="Calibri,Calibri_MSFontService,sans-serif" font-weight="700" font-size="41" transform="matrix(1 0 0 1 2348.83 1583)">Threaded</text></g><g clip-path="url(#clip25)"><text fill="#FF0000" font-family="Calibri,Calibri_MSFontService,sans-serif" font-weight="700" font-size="41" transform="matrix(1 0 0 1 2558.6 1533)">Python Multi</text></g><g clip-path="url(#clip26)"><text fill="#FF0000" font-family="Calibri,Calibri_MSFontService,sans-serif" font-weight="700" font-size="41" transform="matrix(1 0 0 1 2589.07 1583)">Threaded</text></g><g clip-path="url(#clip27)"><text fill="#FF0000" font-family="Calibri,Calibri_MSFontService,sans-serif" font-weight="700" font-size="41" transform="matrix(1 0 0 1 2849.05 1533)">C Multi</text></g><g clip-path="url(#clip28)"><text fill="#FF0000" font-family="Calibri,Calibri_MSFontService,sans-serif" font-weight="700" font-size="41" transform="matrix(1 0 0 1 2791.51 1583)">Threaded - no</text></g><g clip-path="url(#clip29)"><text fill="#FF0000" font-family="Calibri,Calibri_MSFontService,sans-serif" font-weight="700" font-size="41" transform="matrix(1 0 0 1 2827.1 1634)">extension</text></g><g clip-path="url(#clip30)"><text fill="#FF0000" font-family="Calibri,Calibri_MSFontService,sans-serif" font-weight="700" font-size="41" transform="matrix(1 0 0 1 3089.29 1533)">C Multi</text></g><g clip-path="url(#clip31)"><text fill="#FF0000" font-family="Calibri,Calibri_MSFontService,sans-serif" font-weight="700" font-size="41" transform="matrix(1 0 0 1 3058.57 1583)">Threaded -</text></g><g clip-path="url(#clip32)"><text fill="#FF0000" font-family="Calibri,Calibri_MSFontService,sans-serif" font-weight="700" font-size="41" transform="matrix(1 0 0 1 3115.2 1634)">AVX</text></g><g clip-path="url(#clip33)"><text fill="#FF0000" font-family="Calibri,Calibri_MSFontService,sans-serif" font-weight="700" font-size="41" transform="matrix(1 0 0 1 3329.53 1533)">C Multi</text></g><g clip-path="url(#clip34)"><text fill="#FF0000" font-family="Calibri,Calibri_MSFontService,sans-serif" font-weight="700" font-size="41" transform="matrix(1 0 0 1 3298.81 1583)">Threaded -</text></g><g clip-path="url(#clip35)"><text fill="#FF0000" font-family="Calibri,Calibri_MSFontService,sans-serif" font-weight="700" font-size="41" transform="matrix(1 0 0 1 3344.99 1634)">AVX2</text></g><g clip-path="url(#clip36)"><text fill="#FF0000" font-family="Calibri,Calibri_MSFontService,sans-serif" font-weight="700" font-size="41" transform="matrix(1 0 0 1 3569.77 1533)">C Multi</text></g><g clip-path="url(#clip37)"><text fill="#FF0000" font-family="Calibri,Calibri_MSFontService,sans-serif" font-weight="700" font-size="41" transform="matrix(1 0 0 1 3539.05 1583)">Threaded -</text></g><g clip-path="url(#clip38)"><text fill="#FF0000" font-family="Calibri,Calibri_MSFontService,sans-serif" font-weight="700" font-size="41" transform="matrix(1 0 0 1 3571.05 1634)">SHA-NI</text></g><g clip-path="url(#clip39)"><text fill="#FF0000" font-family="Calibri,Calibri_MSFontService,sans-serif" font-weight="700" font-size="41" transform="matrix(1 0 0 1 3765.76 1533)">Antminer S9</text></g><g clip-path="url(#clip40)"><text fill="#595959" font-family="Calibri,Calibri_MSFontService,sans-serif" font-weight="400" font-size="64" transform="matrix(1 0 0 1 2298.15 309)">Hash Rate (M/s) of AMD Athlon 200GE vs Antminer S9</text></g><rect x="1963.5" y="213.5" width="2079" height="1593" stroke="#D9D9D9" stroke-width="3.4375" stroke-linejoin="round" stroke-miterlimit="10" fill="none"/></g></svg>